<svg width="115" height="63" viewBox="0 0 115 63" fill="none" xmlns="http://www.w3.org/2000/svg">
<path d="M18 56.5H8.5V63H0V0C2.33337 0.166687 7.80005 1.52875 9 7.92877V28.9288C9.33337 31.4288 11 35 17 35C17.3431 35 17.6765 34.9971 18 34.9908V39.9288L5.5 44.9288H9V50.9288H18V56.5Z" fill="black"/>
<path d="M18 56.5H8.5V63H0V0C2.33337 0.166687 7.80005 1.52875 9 7.92877V28.9288C9.33337 31.4288 11 35 17 35C17.3431 35 17.6765 34.9971 18 34.9908V39.9288L5.5 44.9288H9V50.9288H18V56.5Z" fill="black"/>
<path d="M18 56.5H27.5V63H36V0C33.6666 0.166687 28.2 1.52875 27 7.92877V28.9288C26.6666 31.4288 25 35 19 35C18.6569 35 18.3235 34.9971 18 34.9908V39.9288L30.5 44.9288H27V50.9288H18V56.5Z" fill="black"/>
<path d="M18 56.5H27.5V63H36V0C33.6666 0.166687 28.2 1.52875 27 7.92877V28.9288C26.6666 31.4288 25 35 19 35C18.6569 35 18.3235 34.9971 18 34.9908V39.9288L30.5 44.9288H27V50.9288H18V56.5Z" fill="black"/>
<path d="M54.3043 37.1983V31.2686H56.6055V45.7314H54.3043V39.4711H48.3012V45.7314H46V31.2686H48.3012V37.1983H54.3043Z" fill="black"/>
<path d="M71.1114 43.8306C69.7106 45.2769 67.9964 46 65.9687 46C63.941 46 62.2201 45.2769 60.8061 43.8306C59.4053 42.3705 58.705 40.5937 58.705 38.5C58.705 36.4063 59.4053 34.6364 60.8061 33.1901C62.2201 31.73 63.941 31 65.9687 31C67.9964 31 69.7106 31.73 71.1114 33.1901C72.5254 34.6364 73.2324 36.4063 73.2324 38.5C73.2324 40.5937 72.5254 42.3705 71.1114 43.8306ZM62.4269 42.219C63.4007 43.197 64.5813 43.686 65.9687 43.686C67.3694 43.686 68.5434 43.197 69.4905 42.219C70.451 41.2273 70.9313 39.9876 70.9313 38.5C70.9313 37.0124 70.451 35.7796 69.4905 34.8017C68.5434 33.8099 67.3694 33.314 65.9687 33.314C64.568 33.314 63.3874 33.8099 62.4269 34.8017C61.4797 35.7796 61.0062 37.0124 61.0062 38.5C61.0062 39.9738 61.4797 41.2135 62.4269 42.219Z" fill="black"/>
<path d="M73.4297 31.2686H83.635V33.5413H79.693V45.7314H77.3918V33.5413H73.4297V31.2686Z" fill="black"/>
<path d="M87.6378 39.5537V43.4587H93.841V45.7314H85.3366V31.2686H93.741V33.5413H87.6378V37.3017H93.2407V39.5537H87.6378Z" fill="black"/>
<path d="M98.2487 31.2686V43.4587H103.952V45.7314H95.9476V31.2686H98.2487Z" fill="black"/>
<path d="M110.029 46C108.682 46 107.534 45.6901 106.587 45.0702C105.653 44.4366 105 43.562 104.626 42.4463L106.607 41.2479C107.167 42.8733 108.328 43.686 110.089 43.686C110.943 43.686 111.59 43.5138 112.03 43.1694C112.47 42.8251 112.69 42.3636 112.69 41.7851C112.69 41.2066 112.457 40.759 111.99 40.4422C111.523 40.1253 110.696 39.781 109.509 39.4091C108.295 39.0372 107.314 38.5964 106.567 38.0868C105.66 37.4256 105.206 36.4545 105.206 35.1736C105.206 33.8926 105.647 32.8802 106.527 32.1364C107.394 31.3788 108.455 31 109.709 31C110.816 31 111.79 31.2824 112.63 31.8471C113.484 32.3981 114.138 33.1763 114.591 34.1818L112.65 35.3388C112.063 33.989 111.083 33.314 109.709 33.314C109.042 33.314 108.508 33.4793 108.108 33.8099C107.708 34.1267 107.508 34.5606 107.508 35.1116C107.508 35.6488 107.708 36.0758 108.108 36.3926C108.508 36.6956 109.248 37.0193 110.329 37.3636C110.996 37.5978 111.383 37.7355 111.49 37.7769C111.663 37.832 112.01 37.9697 112.53 38.1901C112.957 38.3691 113.297 38.562 113.551 38.7686C114.591 39.6088 115.071 40.6006 114.991 41.7438C114.991 43.0523 114.531 44.0923 113.611 44.8636C112.717 45.6212 111.523 46 110.029 46Z" fill="black"/>
</svg>
